<mxfile host="Electron" agent="Mozilla/5.0 (Windows NT 10.0; Win64; x64) AppleWebKit/537.36 (KHTML, like Gecko) draw.io/28.2.8 Chrome/140.0.7339.240 Electron/38.4.0 Safari/537.36" version="28.2.8">
  <diagram name="Arquitectura Hexagonal ServiCiudad" id="UXc4RBYZE_OiovDIlHzf">
    <mxGraphModel dx="2672" dy="1482" grid="1" gridSize="10" guides="1" tooltips="1" connect="1" arrows="1" fold="1" page="1" pageScale="1" pageWidth="1654" pageHeight="1169" math="0" shadow="0">
      <root>
        <mxCell id="0" />
        <mxCell id="1" parent="0" />
        <mxCell id="_3P7xWRz14nrLUvZf9t--1" value="ARQUITECTURA HEXAGONAL - SERVICIUDAD CALI" style="text;html=1;strokeColor=none;fillColor=none;align=center;verticalAlign=middle;whiteSpace=wrap;rounded=0;fontSize=22;fontStyle=1;fontColor=#000000;" vertex="1" parent="1">
          <mxGeometry x="388" y="25" width="800" height="40" as="geometry" />
        </mxCell>
        <mxCell id="_3P7xWRz14nrLUvZf9t--2" value="Ports &amp; Adapters Pattern - Domain-Driven Design Implementation" style="text;html=1;strokeColor=none;fillColor=none;align=center;verticalAlign=middle;whiteSpace=wrap;rounded=0;fontSize=14;fontStyle=2;fontColor=#666666;" vertex="1" parent="1">
          <mxGeometry x="488" y="65" width="600" height="25" as="geometry" />
        </mxCell>
        <mxCell id="_3P7xWRz14nrLUvZf9t--13" value="APPLICATION LAYER" style="text;html=1;strokeColor=none;fillColor=none;align=center;verticalAlign=middle;whiteSpace=wrap;rounded=0;fontSize=16;fontStyle=1;fontColor=#006600;" vertex="1" parent="1">
          <mxGeometry x="514" y="187" width="300" height="30" as="geometry" />
        </mxCell>
        <mxCell id="_3P7xWRz14nrLUvZf9t--14" value="USE CASES&#xa;(Casos de Uso)" style="swimlane;startSize=35;fillColor=#d5e8d4;strokeColor=#82b366;fontStyle=1;fontSize=11;" vertex="1" parent="1">
          <mxGeometry x="388" y="227" width="160" height="120" as="geometry" />
        </mxCell>
        <mxCell id="_3P7xWRz14nrLUvZf9t--15" value="• ConsultarDeuda&#xa;   UseCaseImpl&#xa;• GestionarFactura&#xa;   UseCaseImpl&#xa;• ConsultarConsumo&#xa;   EnergiaUseCaseImpl" style="text;html=1;strokeColor=none;fillColor=none;align=left;verticalAlign=top;whiteSpace=wrap;rounded=0;fontSize=9;fontFamily=Courier New;" vertex="1" parent="_3P7xWRz14nrLUvZf9t--14">
          <mxGeometry x="5" y="35" width="210" height="60" as="geometry" />
        </mxCell>
        <mxCell id="_3P7xWRz14nrLUvZf9t--16" value="DTOs&#xa;(Data Transfer Objects)" style="swimlane;startSize=35;fillColor=#d5e8d4;strokeColor=#82b366;fontStyle=1;fontSize=11;" vertex="1" parent="1">
          <mxGeometry x="567" y="227" width="180" height="130" as="geometry" />
        </mxCell>
        <mxCell id="_3P7xWRz14nrLUvZf9t--17" value="Request:&#xa;• ConsultarDeudaRequest&#xa;• RegistrarPagoRequest&#xa;Response:&#xa;• DeudaConsolidadaResponse&#xa;• FacturaResponse&#xa;• ConsumoEnergiaResponse&#xa;• EstadisticasResponse" style="text;html=1;strokeColor=none;fillColor=none;align=left;verticalAlign=top;whiteSpace=wrap;rounded=0;fontSize=8;fontFamily=Courier New;" vertex="1" parent="_3P7xWRz14nrLUvZf9t--16">
          <mxGeometry x="5" y="35" width="170" height="65" as="geometry" />
        </mxCell>
        <mxCell id="_3P7xWRz14nrLUvZf9t--18" value="MAPPERS&#xa;(Transformaciones)" style="swimlane;startSize=35;fillColor=#d5e8d4;strokeColor=#82b366;fontStyle=1;fontSize=11;" vertex="1" parent="1">
          <mxGeometry x="767" y="227" width="140" height="100" as="geometry" />
        </mxCell>
        <mxCell id="_3P7xWRz14nrLUvZf9t--19" value="• DeudaMapper" style="text;html=1;strokeColor=none;fillColor=none;align=left;verticalAlign=top;whiteSpace=wrap;rounded=0;fontSize=10;fontFamily=Courier New;" vertex="1" parent="_3P7xWRz14nrLUvZf9t--18">
          <mxGeometry x="10" y="40" width="120" height="25" as="geometry" />
        </mxCell>
        <mxCell id="_3P7xWRz14nrLUvZf9t--20" value="INFRASTRUCTURE - INPUT ADAPTERS" style="text;html=1;strokeColor=none;fillColor=none;align=center;verticalAlign=middle;whiteSpace=wrap;rounded=0;fontSize=14;fontStyle=1;fontColor=#000099;" vertex="1" parent="1">
          <mxGeometry x="12" y="177" width="271" height="30" as="geometry" />
        </mxCell>
        <mxCell id="_3P7xWRz14nrLUvZf9t--21" value="REST CONTROLLERS" style="swimlane;startSize=30;fillColor=#dae8fc;strokeColor=#6c8ebf;fontStyle=1;fontSize=11;" vertex="1" parent="1">
          <mxGeometry x="22" y="217" width="240" height="140" as="geometry" />
        </mxCell>
        <mxCell id="_3P7xWRz14nrLUvZf9t--22" value="1. DeudaRestController&#xa;   /api/deuda (2 endpoints)&#xa;&#xa;2. FacturaRestController&#xa;   /api/facturas (6 endpoints)&#xa;&#xa;3. ConsumoEnergiaRestController&#xa;   /api/consumos-energia (3 endpoints)" style="text;html=1;strokeColor=none;fillColor=none;align=left;verticalAlign=top;whiteSpace=wrap;rounded=0;fontSize=9;fontFamily=Courier New;" vertex="1" parent="_3P7xWRz14nrLUvZf9t--21">
          <mxGeometry x="10" y="35" width="220" height="90" as="geometry" />
        </mxCell>
        <mxCell id="_3P7xWRz14nrLUvZf9t--23" value="HTTP CLIENTS&#xa;&#xa;Web Browser / Mobile App&#xa;Postman / cURL&#xa;Third-party Apps" style="rounded=1;whiteSpace=wrap;html=1;fillColor=#f5f5f5;strokeColor=#666666;fontColor=#333333;fontStyle=1;fontSize=10;" vertex="1" parent="1">
          <mxGeometry x="42" y="437" width="200" height="90" as="geometry" />
        </mxCell>
        <mxCell id="_3P7xWRz14nrLUvZf9t--24" value="INFRASTRUCTURE - OUTPUT ADAPTERS" style="text;html=1;strokeColor=none;fillColor=none;align=center;verticalAlign=middle;whiteSpace=wrap;rounded=0;fontSize=14;fontStyle=1;fontColor=#990000;" vertex="1" parent="1">
          <mxGeometry x="998" y="188" width="350" height="30" as="geometry" />
        </mxCell>
        <mxCell id="_3P7xWRz14nrLUvZf9t--25" value="JPA PERSISTENCE ADAPTER" style="swimlane;startSize=30;fillColor=#ffe6cc;strokeColor=#d79b00;fontStyle=1;fontSize=11;" vertex="1" parent="1">
          <mxGeometry x="1018" y="238" width="310" height="180" as="geometry" />
        </mxCell>
        <mxCell id="_3P7xWRz14nrLUvZf9t--26" value="FacturaRepositoryAdapter&#xa;├─ Implementa: FacturaRepositoryPort&#xa;├─ Usa: FacturaJpaRepository&#xa;├─ Usa: FacturaJpaMapper&#xa;└─ Entities: FacturaJpaEntity&#xa;&#xa;ConsumoEnergiaReaderAdapter&#xa;├─ Implementa: ConsumoEnergiaReaderPort&#xa;├─ Usa: ConsumoEnergiaJpaRepository&#xa;├─ Usa: ConsumoEnergiaJpaMapper&#xa;└─ Entities: ConsumoEnergiaJpaEntity" style="text;html=1;strokeColor=none;fillColor=none;align=left;verticalAlign=top;whiteSpace=wrap;rounded=0;fontSize=9;fontFamily=Courier New;" vertex="1" parent="_3P7xWRz14nrLUvZf9t--25">
          <mxGeometry x="10" y="35" width="290" height="110" as="geometry" />
        </mxCell>
        <mxCell id="_3P7xWRz14nrLUvZf9t--27" value="FILE READER ADAPTER&#xa;(COBOL Legacy Integration)" style="swimlane;startSize=40;fillColor=#ffe6cc;strokeColor=#d79b00;fontStyle=1;fontSize=11;" vertex="1" parent="1">
          <mxGeometry x="1018" y="448" width="310" height="100" as="geometry" />
        </mxCell>
        <mxCell id="_3P7xWRz14nrLUvZf9t--28" value="AdaptadorArchivoEnergia&#xa;├─ Lee: consumos_energia.txt (78 chars)&#xa;├─ Parsea: Formato COBOL ancho fijo&#xa;└─ Convierte: String → ConsumoEnergiaModel" style="text;html=1;strokeColor=none;fillColor=none;align=left;verticalAlign=top;whiteSpace=wrap;rounded=0;fontSize=9;fontFamily=Courier New;" vertex="1" parent="_3P7xWRz14nrLUvZf9t--27">
          <mxGeometry x="10" y="45" width="290" height="50" as="geometry" />
        </mxCell>
        <mxCell id="_3P7xWRz14nrLUvZf9t--29" value="SPRING CONFIGURATION" style="swimlane;startSize=30;fillColor=#e1d5e7;strokeColor=#9673a6;fontStyle=1;fontSize=11;" vertex="1" parent="1">
          <mxGeometry x="1018" y="568" width="310" height="80" as="geometry" />
        </mxCell>
        <mxCell id="_3P7xWRz14nrLUvZf9t--30" value="HexagonalConfig&#xa;└─ @Bean creation for all Use Cases&#xa;    (Dependency Injection orchestration)" style="text;html=1;strokeColor=none;fillColor=none;align=left;verticalAlign=top;whiteSpace=wrap;rounded=0;fontSize=9;fontFamily=Courier New;" vertex="1" parent="_3P7xWRz14nrLUvZf9t--29">
          <mxGeometry x="10" y="35" width="290" height="40" as="geometry" />
        </mxCell>
        <mxCell id="_3P7xWRz14nrLUvZf9t--31" value="EXTERNAL DATA SOURCES" style="text;html=1;strokeColor=none;fillColor=none;align=center;verticalAlign=middle;whiteSpace=wrap;rounded=0;fontSize=14;fontStyle=1;fontColor=#CC0000;" vertex="1" parent="1">
          <mxGeometry x="1392" y="188" width="250" height="30" as="geometry" />
        </mxCell>
        <mxCell id="_3P7xWRz14nrLUvZf9t--32" value="PostgreSQL 15&#xa;&#xa;Database: serviciudad_db&#xa;Table: facturas_acueducto&#xa;Rows: 20+ registros&#xa;Indices: 4 (B-tree)" style="shape=cylinder3;whiteSpace=wrap;html=1;boundedLbl=1;backgroundOutline=1;size=15;fillColor=#f8cecc;strokeColor=#b85450;fontStyle=1;fontSize=10;" vertex="1" parent="1">
          <mxGeometry x="1442" y="268" width="150" height="120" as="geometry" />
        </mxCell>
        <mxCell id="_3P7xWRz14nrLUvZf9t--33" value="consumos_energia.txt&#xa;&#xa;Format: COBOL 78 chars&#xa;Fixed-width&#xa;Legacy Mainframe&#xa;Rows: 10+ registros" style="rounded=1;whiteSpace=wrap;html=1;fillColor=#f8cecc;strokeColor=#b85450;fontStyle=1;fontSize=10;" vertex="1" parent="1">
          <mxGeometry x="1452" y="438" width="130" height="120" as="geometry" />
        </mxCell>
        <mxCell id="_3P7xWRz14nrLUvZf9t--34" value="HTTP&#xa;Requests" style="edgeStyle=orthogonalEdgeStyle;rounded=0;orthogonalLoop=1;jettySize=auto;html=1;exitX=0.5;exitY=0;exitDx=0;exitDy=0;entryX=0.5;entryY=1;entryDx=0;entryDy=0;strokeWidth=2;strokeColor=#0066CC;" edge="1" parent="1" source="_3P7xWRz14nrLUvZf9t--23" target="_3P7xWRz14nrLUvZf9t--21">
          <mxGeometry relative="1" as="geometry" />
        </mxCell>
        <mxCell id="_3P7xWRz14nrLUvZf9t--35" value="Invokes&#xa;(via Port)" style="edgeStyle=orthogonalEdgeStyle;rounded=0;orthogonalLoop=1;jettySize=auto;html=1;strokeWidth=2;strokeColor=#006600;dashed=1;entryX=0;entryY=0.5;entryDx=0;entryDy=0;exitX=1;exitY=0.5;exitDx=0;exitDy=0;" edge="1" parent="1" source="_3P7xWRz14nrLUvZf9t--21" target="_3P7xWRz14nrLUvZf9t--14">
          <mxGeometry relative="1" as="geometry">
            <mxPoint x="338" y="325" as="sourcePoint" />
            <mxPoint x="358" y="307" as="targetPoint" />
            <Array as="points" />
          </mxGeometry>
        </mxCell>
        <mxCell id="_3P7xWRz14nrLUvZf9t--36" value="Uses" style="edgeStyle=orthogonalEdgeStyle;rounded=0;orthogonalLoop=1;jettySize=auto;html=1;exitX=0.5;exitY=1;exitDx=0;exitDy=0;entryX=0.25;entryY=0;entryDx=0;entryDy=0;strokeWidth=2;strokeColor=#990000;" edge="1" parent="1" source="_3P7xWRz14nrLUvZf9t--14" target="_3P7xWRz14nrLUvZf9t--3">
          <mxGeometry relative="1" as="geometry" />
        </mxCell>
        <mxCell id="_3P7xWRz14nrLUvZf9t--37" value="Maps&#xa;to/from" style="edgeStyle=orthogonalEdgeStyle;rounded=0;orthogonalLoop=1;jettySize=auto;html=1;exitX=0.5;exitY=1;exitDx=0;exitDy=0;entryX=0.5;entryY=0;entryDx=0;entryDy=0;strokeWidth=2;strokeColor=#990000;dashed=1;" edge="1" parent="1" source="_3P7xWRz14nrLUvZf9t--16" target="_3P7xWRz14nrLUvZf9t--3">
          <mxGeometry relative="1" as="geometry" />
        </mxCell>
        <mxCell id="_3P7xWRz14nrLUvZf9t--38" value="Repository&#xa;Port" style="edgeStyle=orthogonalEdgeStyle;rounded=0;orthogonalLoop=1;jettySize=auto;html=1;exitX=0.939;exitY=0.054;exitDx=0;exitDy=0;entryX=0;entryY=0.5;entryDx=0;entryDy=0;strokeWidth=2;strokeColor=#CC6600;dashed=1;exitPerimeter=0;" edge="1" parent="1" source="_3P7xWRz14nrLUvZf9t--3" target="_3P7xWRz14nrLUvZf9t--25">
          <mxGeometry relative="1" as="geometry" />
        </mxCell>
        <mxCell id="_3P7xWRz14nrLUvZf9t--39" value="Reader&#xa;Port" style="edgeStyle=orthogonalEdgeStyle;rounded=0;orthogonalLoop=1;jettySize=auto;html=1;exitX=0.955;exitY=0.165;exitDx=0;exitDy=0;entryX=0;entryY=0.5;entryDx=0;entryDy=0;strokeWidth=2;strokeColor=#CC6600;dashed=1;exitPerimeter=0;" edge="1" parent="1" source="_3P7xWRz14nrLUvZf9t--3" target="_3P7xWRz14nrLUvZf9t--27">
          <mxGeometry relative="1" as="geometry" />
        </mxCell>
        <mxCell id="_3P7xWRz14nrLUvZf9t--40" value="JDBC&#xa;Spring Data&#xa;JPA" style="edgeStyle=orthogonalEdgeStyle;rounded=0;orthogonalLoop=1;jettySize=auto;html=1;exitX=1;exitY=0.5;exitDx=0;exitDy=0;entryX=0;entryY=0.5;entryDx=0;entryDy=0;entryPerimeter=0;strokeWidth=2;strokeColor=#CC0000;" edge="1" parent="1" source="_3P7xWRz14nrLUvZf9t--25" target="_3P7xWRz14nrLUvZf9t--32">
          <mxGeometry relative="1" as="geometry" />
        </mxCell>
        <mxCell id="_3P7xWRz14nrLUvZf9t--41" value="Files.read&#xa;AllLines()" style="edgeStyle=orthogonalEdgeStyle;rounded=0;orthogonalLoop=1;jettySize=auto;html=1;exitX=1;exitY=0.5;exitDx=0;exitDy=0;entryX=0;entryY=0.5;entryDx=0;entryDy=0;strokeWidth=2;strokeColor=#CC0000;" edge="1" parent="1" source="_3P7xWRz14nrLUvZf9t--27" target="_3P7xWRz14nrLUvZf9t--33">
          <mxGeometry relative="1" as="geometry" />
        </mxCell>
        <mxCell id="_3P7xWRz14nrLUvZf9t--42" value="5 PATRONES DE DISEÑO IMPLEMENTADOS" style="swimlane;startSize=35;fillColor=#e1d5e7;strokeColor=#9673a6;fontStyle=1;fontSize=12;" vertex="1" parent="1">
          <mxGeometry x="22" y="575" width="300" height="390" as="geometry" />
        </mxCell>
        <mxCell id="_3P7xWRz14nrLUvZf9t--43" value="1. ADAPTER PATTERN&#xa;   ConsumoEnergiaReaderAdapter&#xa;   → Lee archivo COBOL legacy" style="text;html=1;strokeColor=#d6b656;fillColor=#fff2cc;align=left;verticalAlign=top;whiteSpace=wrap;rounded=1;fontSize=10;spacing=5;" vertex="1" parent="_3P7xWRz14nrLUvZf9t--42">
          <mxGeometry x="10" y="50" width="280" height="50" as="geometry" />
        </mxCell>
        <mxCell id="_3P7xWRz14nrLUvZf9t--44" value="2. REPOSITORY PATTERN&#xa;   FacturaRepositoryPort + Adapter&#xa;   → Spring Data JPA abstraction" style="text;html=1;strokeColor=#d6b656;fillColor=#fff2cc;align=left;verticalAlign=top;whiteSpace=wrap;rounded=1;fontSize=10;spacing=5;" vertex="1" parent="_3P7xWRz14nrLUvZf9t--42">
          <mxGeometry x="10" y="115" width="280" height="55" as="geometry" />
        </mxCell>
        <mxCell id="_3P7xWRz14nrLUvZf9t--45" value="3. DTO PATTERN&#xa;   Request/Response DTOs&#xa;   → Decoupling layers" style="text;html=1;strokeColor=#d6b656;fillColor=#fff2cc;align=left;verticalAlign=top;whiteSpace=wrap;rounded=1;fontSize=10;spacing=5;" vertex="1" parent="_3P7xWRz14nrLUvZf9t--42">
          <mxGeometry x="10" y="183" width="280" height="55" as="geometry" />
        </mxCell>
        <mxCell id="_3P7xWRz14nrLUvZf9t--46" value="4. BUILDER PATTERN&#xa;   Response DTOs con @Builder&#xa;   → Immutable object construction" style="text;html=1;strokeColor=#d6b656;fillColor=#fff2cc;align=left;verticalAlign=top;whiteSpace=wrap;rounded=1;fontSize=10;spacing=5;" vertex="1" parent="_3P7xWRz14nrLUvZf9t--42">
          <mxGeometry x="10" y="250" width="280" height="55" as="geometry" />
        </mxCell>
        <mxCell id="_3P7xWRz14nrLUvZf9t--47" value="5. IoC/DI PATTERN&#xa;   Spring @Autowired injection&#xa;   → Dependency Inversion Principle" style="text;html=1;strokeColor=#d6b656;fillColor=#fff2cc;align=left;verticalAlign=top;whiteSpace=wrap;rounded=1;fontSize=10;spacing=5;" vertex="1" parent="_3P7xWRz14nrLUvZf9t--42">
          <mxGeometry x="10" y="320" width="280" height="52" as="geometry" />
        </mxCell>
        <mxCell id="_3P7xWRz14nrLUvZf9t--48" value="STACK TECNOLÓGICO" style="swimlane;startSize=30;fillColor=#dae8fc;strokeColor=#6c8ebf;fontStyle=1;fontSize=12;" vertex="1" parent="1">
          <mxGeometry x="368" y="845" width="260" height="300" as="geometry" />
        </mxCell>
        <mxCell id="_3P7xWRz14nrLUvZf9t--49" value="Backend:&#xa;• Spring Boot 3.2.0&#xa;• Java 17 LTS&#xa;• Maven 3.9.11&#xa;&#xa;Persistence:&#xa;• PostgreSQL 15&#xa;• Hibernate 6.3 (JPA)&#xa;• HikariCP 5.0&#xa;&#xa;Infrastructure:&#xa;• Docker + Compose&#xa;• OpenAPI 3.0 (SpringDoc)&#xa;&#xa;Testing:&#xa;• JUnit 5 + Mockito&#xa;• AssertJ 3.24&#xa;&#xa;Observability:&#xa;• Spring Actuator&#xa;• Prometheus + Grafana" style="text;html=1;strokeColor=none;fillColor=none;align=left;verticalAlign=top;whiteSpace=wrap;rounded=0;fontSize=10;fontFamily=Courier New;" vertex="1" parent="_3P7xWRz14nrLUvZf9t--48">
          <mxGeometry x="10" y="35" width="240" height="220" as="geometry" />
        </mxCell>
        <mxCell id="_3P7xWRz14nrLUvZf9t--50" value="MÉTRICAS DE CALIDAD" style="swimlane;startSize=30;fillColor=#d5e8d4;strokeColor=#82b366;fontStyle=1;fontSize=12;" vertex="1" parent="1">
          <mxGeometry x="658" y="845" width="260" height="300" as="geometry" />
        </mxCell>
        <mxCell id="_3P7xWRz14nrLUvZf9t--51" value="Cobertura de Tests:&#xa;• Lines: 85%&#xa;• Branches: 78%&#xa;&#xa;Complejidad:&#xa;• Cyclomatic avg: 6.2&#xa;• Max complexity: 12&#xa;&#xa;Performance:&#xa;• P95 response: 1.2s&#xa;• Throughput: 120 RPS&#xa;• Error rate: 0.3%&#xa;&#xa;Calidad de Código:&#xa;• Critical bugs: 0&#xa;• Major bugs: 0&#xa;• Code smells: 12 (minor)&#xa;&#xa;Vulnerabilities:&#xa;• Critical CVEs: 0&#xa;• Dependency issues: 0" style="text;html=1;strokeColor=none;fillColor=none;align=left;verticalAlign=top;whiteSpace=wrap;rounded=0;fontSize=10;fontFamily=Courier New;" vertex="1" parent="_3P7xWRz14nrLUvZf9t--50">
          <mxGeometry x="10" y="35" width="240" height="220" as="geometry" />
        </mxCell>
        <mxCell id="_3P7xWRz14nrLUvZf9t--52" value="11 ENDPOINTS REST" style="swimlane;startSize=30;fillColor=#fff2cc;strokeColor=#d6b656;fontStyle=1;fontSize=12;" vertex="1" parent="1">
          <mxGeometry x="948" y="705" width="230" height="260" as="geometry" />
        </mxCell>
        <mxCell id="_3P7xWRz14nrLUvZf9t--53" value="DeudaRestController:&#xa;• POST /api/deuda/consultar&#xa;• GET /api/deuda/cliente/{id}&#xa;&#xa;FacturaRestController:&#xa;• GET /api/facturas/{id}&#xa;• GET /api/facturas/cliente/{id}&#xa;• GET /api/facturas/cliente/{id}/&#xa;     periodo/{periodo}&#xa;• POST /api/facturas/pagar&#xa;• POST /api/facturas/{id}/anular&#xa;• POST /api/facturas/marcar-vencidas&#xa;&#xa;ConsumoEnergiaRestController:&#xa;• GET /api/consumos-energia/&#xa;     cliente/{id}&#xa;• GET /api/consumos-energia/&#xa;     cliente/{id}/periodo/{periodo}&#xa;• GET /api/consumos-energia/&#xa;     cliente/{id}/elevados" style="text;html=1;strokeColor=none;fillColor=none;align=left;verticalAlign=top;whiteSpace=wrap;rounded=0;fontSize=8;fontFamily=Courier New;" vertex="1" parent="_3P7xWRz14nrLUvZf9t--52">
          <mxGeometry x="10" y="35" width="210" height="220" as="geometry" />
        </mxCell>
        <mxCell id="_3P7xWRz14nrLUvZf9t--54" value="Diagrama de Arquitectura Hexagonal - ServiCiudad Cali | Universidad Autónoma de Occidente | Ingeniería de Software 2 | Octubre 2025&#xa;Equipo: Eduard Criollo, Felipe Charria, Jhonathan Chicaiza, Emmanuel Mena, Juan Sebastian Castillo" style="text;html=1;strokeColor=#666666;fillColor=#f5f5f5;align=center;verticalAlign=middle;whiteSpace=wrap;rounded=1;fontSize=9;fontColor=#333333;" vertex="1" parent="1">
          <mxGeometry x="38" y="125" width="1500" height="40" as="geometry" />
        </mxCell>
        <mxCell id="_3P7xWRz14nrLUvZf9t--57" value="" style="group" vertex="1" connectable="0" parent="1">
          <mxGeometry x="368" y="467" width="500" height="350" as="geometry" />
        </mxCell>
        <mxCell id="_3P7xWRz14nrLUvZf9t--3" value="" style="shape=hexagon;perimeter=hexagonPerimeter2;whiteSpace=wrap;html=1;fixedSize=1;fillColor=#f8cecc;strokeColor=#b85450;strokeWidth=3;size=30;" vertex="1" parent="_3P7xWRz14nrLUvZf9t--57">
          <mxGeometry width="500" height="350" as="geometry" />
        </mxCell>
        <mxCell id="_3P7xWRz14nrLUvZf9t--4" value="DOMAIN LAYER&#xa;(Núcleo Hexagonal - Business Logic)" style="text;html=1;strokeColor=none;fillColor=none;align=center;verticalAlign=middle;whiteSpace=wrap;rounded=0;fontSize=16;fontStyle=1;fontColor=#990000;" vertex="1" parent="_3P7xWRz14nrLUvZf9t--57">
          <mxGeometry x="100" y="15" width="300" height="50" as="geometry" />
        </mxCell>
        <mxCell id="_3P7xWRz14nrLUvZf9t--5" value="VALUE OBJECTS&#xa;(Objetos Inmutables)" style="swimlane;startSize=40;fillColor=#fff2cc;strokeColor=#d6b656;fontStyle=1;fontSize=11;" vertex="1" parent="_3P7xWRz14nrLUvZf9t--57">
          <mxGeometry x="30" y="80" width="200" height="120" as="geometry" />
        </mxCell>
        <mxCell id="_3P7xWRz14nrLUvZf9t--6" value="• ClienteId&#xa;• FacturaId&#xa;• Periodo&#xa;• ConsumoAgua&#xa;• ConsumoEnergia&#xa;• Dinero" style="text;html=1;strokeColor=none;fillColor=none;align=left;verticalAlign=top;whiteSpace=wrap;rounded=0;fontSize=10;fontFamily=Courier New;" vertex="1" parent="_3P7xWRz14nrLUvZf9t--5">
          <mxGeometry x="10" y="45" width="180" height="70" as="geometry" />
        </mxCell>
        <mxCell id="_3P7xWRz14nrLUvZf9t--7" value="DOMAIN MODELS&#xa;(POJOs Puros)" style="swimlane;startSize=40;fillColor=#fff2cc;strokeColor=#d6b656;fontStyle=1;fontSize=11;" vertex="1" parent="_3P7xWRz14nrLUvZf9t--57">
          <mxGeometry x="270" y="80" width="200" height="120" as="geometry" />
        </mxCell>
        <mxCell id="_3P7xWRz14nrLUvZf9t--8" value="• FacturaAcueducto&#xa;• ConsumoEnergiaModel&#xa;• DeudaConsolidada&#xa;• EstadisticasDeuda&#xa;• EstadoFactura (Enum)" style="text;html=1;strokeColor=none;fillColor=none;align=left;verticalAlign=top;whiteSpace=wrap;rounded=0;fontSize=10;fontFamily=Courier New;" vertex="1" parent="_3P7xWRz14nrLUvZf9t--7">
          <mxGeometry x="10" y="45" width="180" height="70" as="geometry" />
        </mxCell>
        <mxCell id="_3P7xWRz14nrLUvZf9t--9" value="PORTS (INPUT)&#xa;Use Cases Interfaces" style="swimlane;startSize=40;fillColor=#d5e8d4;strokeColor=#82b366;fontStyle=1;fontSize=11;" vertex="1" parent="_3P7xWRz14nrLUvZf9t--57">
          <mxGeometry x="40" y="220" width="195" height="100" as="geometry" />
        </mxCell>
        <mxCell id="_3P7xWRz14nrLUvZf9t--10" value="• ConsultarDeudaUseCase&#xa;• GestionarFacturaUseCase&#xa;• ConsultarConsumo&#xa;   EnergiaUseCase" style="text;html=1;strokeColor=none;fillColor=none;align=left;verticalAlign=top;whiteSpace=wrap;rounded=0;fontSize=10;fontFamily=Courier New;" vertex="1" parent="_3P7xWRz14nrLUvZf9t--9">
          <mxGeometry x="10" y="45" width="175" height="50" as="geometry" />
        </mxCell>
        <mxCell id="_3P7xWRz14nrLUvZf9t--11" value="PORTS (OUTPUT)&#xa;Repository Interfaces" style="swimlane;startSize=40;fillColor=#d5e8d4;strokeColor=#82b366;fontStyle=1;fontSize=11;" vertex="1" parent="_3P7xWRz14nrLUvZf9t--57">
          <mxGeometry x="270" y="220" width="195" height="100" as="geometry" />
        </mxCell>
        <mxCell id="_3P7xWRz14nrLUvZf9t--12" value="• FacturaRepositoryPort&#xa;• ConsumoEnergia&#xa;   ReaderPort" style="text;html=1;strokeColor=none;fillColor=none;align=left;verticalAlign=top;whiteSpace=wrap;rounded=0;fontSize=10;fontFamily=Courier New;" vertex="1" parent="_3P7xWRz14nrLUvZf9t--11">
          <mxGeometry x="10" y="45" width="175" height="45" as="geometry" />
        </mxCell>
      </root>
    </mxGraphModel>
  </diagram>
</mxfile>
